<svg width="124" height="28" viewBox="0 0 124 28" fill="none" xmlns="http://www.w3.org/2000/svg">
<path d="M23.9948 0H3.41895C1.5316 0 0.00390625 1.561 0.00390625 3.486V18.34C0.00390625 18.648 0.247104 18.8965 0.548532 18.8965H26.8584C27.1598 18.8965 27.403 18.648 27.403 18.34V3.486C27.403 1.561 25.8753 0 23.9914 0H23.9948ZM9.54685 14.595C9.31392 16.044 8.16987 17.2165 6.75179 17.451H6.74836C4.40544 17.843 2.40506 15.8025 2.79212 13.405C3.02504 11.956 4.16909 10.7835 5.58718 10.549C7.9301 10.157 9.93048 12.1975 9.54685 14.595ZM24.6183 14.595C24.3853 16.044 23.2413 17.2165 21.8232 17.451H21.8198C19.4768 17.843 17.4765 15.8025 17.8635 13.405C18.0964 11.956 19.2405 10.7835 20.6586 10.549C23.0015 10.157 25.0019 12.1975 24.6183 14.595Z" fill="#B93A24"></path>
<path d="M26.8511 20.3H0.551476C0.246623 20.3 0 20.552 0 20.8635V24.465C0 26.4145 1.54824 27.9965 3.45615 27.9965H23.9464C25.8543 27.9965 27.4026 26.4145 27.4026 24.465V20.8635C27.4026 20.552 27.1559 20.3 26.8511 20.3Z" fill="#B93A24"></path>
<path d="M70.8597 3.5945C66.5849 2.765 62.8958 6.524 63.7076 10.9025C64.1632 13.342 66.0848 15.316 68.4825 15.7815C72.7573 16.611 76.4464 12.852 75.6346 8.4735C75.179 6.034 73.2574 4.06 70.8597 3.5945ZM70.1164 12.012C68.4893 12.3235 67.0815 10.8955 67.3967 9.233C67.5714 8.302 68.3044 7.553 69.2155 7.3745C70.8425 7.063 72.2503 8.491 71.9352 10.1535C71.7605 11.0845 71.0275 11.8335 70.1164 12.012Z" fill="#B93A24"></path>
<path d="M119.116 3.5945C114.841 2.765 111.152 6.524 111.963 10.9025C112.419 13.342 114.341 15.316 116.738 15.7815C121.013 16.611 124.702 12.852 123.89 8.4735C123.438 6.034 121.513 4.06 119.119 3.5945H119.116ZM118.379 12.012C116.752 12.3235 115.344 10.8955 115.659 9.233C115.834 8.302 116.567 7.553 117.478 7.3745C119.105 7.063 120.513 8.491 120.198 10.1535C120.023 11.0845 119.29 11.8335 118.379 12.012Z" fill="#B93A24"></path>
<path d="M59.8782 7.60549C59.8782 6.95449 59.7206 6.33499 59.4569 5.78199C59.4569 5.76449 59.4466 5.74699 59.4397 5.72949C59.3952 5.60349 59.3267 5.50549 59.2548 5.41799C58.5389 4.25599 57.2784 3.47899 55.8363 3.47899C54.2264 3.47899 52.846 4.44499 52.1986 5.83799C51.5512 4.44499 50.1777 3.47899 48.5712 3.47899C47.2148 3.47899 46.0262 4.16849 45.3 5.21149V4.74599C45.3 4.04949 44.7485 3.47549 44.06 3.47549H42.3474C41.6657 3.47549 41.1074 4.03899 41.1074 4.74599V14.343C41.1074 15.0395 41.6589 15.6135 42.3474 15.6135H44.06C44.7417 15.6135 45.3 15.05 45.3 14.343V9.20499C45.3 9.05449 45.3 8.91099 45.3171 8.76749V8.41749C45.3171 7.62999 45.8412 6.90899 46.6016 6.78299C47.571 6.62199 48.4034 7.38149 48.4034 8.33699V14.343C48.4034 15.0395 48.9548 15.6135 49.6433 15.6135H51.3663C52.0479 15.6135 52.6062 15.05 52.6062 14.343V8.41749C52.6062 7.62999 53.1303 6.90899 53.8907 6.78299C54.8532 6.62199 55.6924 7.38149 55.6924 8.33699V14.343C55.6924 15.0395 56.2439 15.6135 56.9324 15.6135H58.6382C59.3198 15.6135 59.8782 15.05 59.8782 14.343V7.86449H59.8679C59.8679 7.77349 59.8782 7.69299 59.8782 7.60549Z" fill="#B93A24"></path>
<path d="M91.3468 7.60551C91.3468 5.32701 89.5382 3.48601 87.3152 3.48601C85.7156 3.48601 84.3352 4.45201 83.6878 5.83451H83.6535V4.75301C83.6535 4.05651 83.1021 3.48251 82.4136 3.48251H80.7009C80.0193 3.48251 79.4609 4.04601 79.4609 4.75301V14.35C79.4609 15.0465 80.0124 15.6205 80.7009 15.6205H82.4136C83.0952 15.6205 83.6535 15.057 83.6535 14.35V8.67651C83.6535 7.78401 84.2495 6.95101 85.1127 6.80751C86.2157 6.62901 87.1576 7.48651 87.1576 8.57851V14.35C87.1576 15.0465 87.7091 15.6205 88.3976 15.6205H90.1103C90.7919 15.6205 91.3502 15.057 91.3502 14.35V7.87151H91.3399C91.3399 7.78051 91.3502 7.70001 91.3502 7.61251L91.3399 7.60201L91.3468 7.60551Z" fill="#B93A24"></path>
<path d="M106.894 0H105.189C104.507 0 103.949 0.5635 103.949 1.267V4.1895C103.442 3.92 102.9 3.717 102.322 3.6085C98.0468 2.779 94.3577 6.538 95.1695 10.9165C95.6251 13.356 97.5467 15.33 99.941 15.792C101.496 16.0965 102.966 15.792 104.171 15.0675C104.39 15.3965 104.757 15.6205 105.185 15.6205H106.891C107.573 15.6205 108.131 15.057 108.131 14.3535V1.267C108.131 0.5705 107.579 0 106.891 0H106.894ZM102.263 12.005C100.636 12.3165 99.2285 10.8885 99.5436 9.226C99.7183 8.2985 100.451 7.546 101.362 7.3675C102.99 7.056 104.397 8.484 104.082 10.1465C103.907 11.074 103.174 11.8265 102.263 12.005Z" fill="#B93A24"></path>
<path d="M46.6633 27.685H44.9232L43.9504 25.6305C43.8408 25.3925 43.6387 25.2735 43.3476 25.2735H42.8646L42.6899 27.6815H41.1074L41.5904 21.2485H44.591C45.2384 21.2485 45.7419 21.4235 46.105 21.77C46.468 22.1095 46.6462 22.568 46.6462 23.1385C46.6462 23.709 46.516 24.1745 46.2523 24.507C45.9954 24.843 45.5946 25.0565 45.0465 25.1545C45.2144 25.2035 45.3548 25.284 45.4679 25.3995C45.5843 25.515 45.6905 25.6655 45.783 25.8545L46.6667 27.678L46.6633 27.685ZM44.2656 24.0135C44.5533 24.0135 44.7657 23.947 44.9129 23.814C45.0637 23.681 45.139 23.4885 45.139 23.24C45.139 22.9915 45.0739 22.8165 44.9472 22.701C44.8239 22.5785 44.6321 22.519 44.3683 22.519H43.0633L42.9571 24.017H44.2621L44.2656 24.0135Z" fill="#B93A24"></path>
<path d="M55.4734 27.776C54.8568 27.776 54.3156 27.65 53.8532 27.4015C53.3942 27.146 53.038 26.7855 52.7845 26.3235C52.5379 25.8545 52.418 25.3015 52.418 24.661C52.418 23.968 52.5447 23.3555 52.8016 22.827C53.0585 22.2915 53.4216 21.882 53.8943 21.595C54.367 21.3045 54.915 21.1575 55.5384 21.1575C56.1618 21.1575 56.6962 21.287 57.1586 21.5425C57.621 21.791 57.9738 22.1515 58.217 22.6205C58.4671 23.0895 58.5938 23.639 58.5938 24.2725C58.5938 24.9655 58.4637 25.578 58.1999 26.1065C57.943 26.635 57.5799 27.048 57.1072 27.3385C56.6345 27.629 56.0899 27.776 55.4699 27.776H55.4734ZM55.4562 26.4775C55.9289 26.4775 56.3023 26.2815 56.5763 25.893C56.8503 25.5045 56.9873 24.962 56.9873 24.269C56.9873 23.6915 56.8606 23.2435 56.6106 22.9285C56.3605 22.6135 56.0111 22.4525 55.5624 22.4525C55.0829 22.4525 54.7095 22.6485 54.4321 23.044C54.158 23.4325 54.021 23.9715 54.021 24.6575C54.021 25.242 54.1443 25.6935 54.3875 26.0085C54.6376 26.32 54.9938 26.474 55.4562 26.474V26.4775Z" fill="#B93A24"></path>
<path d="M68.757 24.36C69.0721 24.458 69.3188 24.6435 69.4934 24.9165C69.6681 25.1825 69.7572 25.4975 69.7572 25.858C69.7572 26.4425 69.5483 26.894 69.1269 27.209C68.7125 27.524 68.1541 27.685 67.4451 27.685H64.3555L64.8384 21.252H67.7363C68.4145 21.252 68.9283 21.4025 69.2845 21.707C69.6476 22.0045 69.8257 22.393 69.8257 22.876C69.8257 23.2295 69.7401 23.5305 69.562 23.779C69.3873 24.024 69.1167 24.2165 68.757 24.3635V24.36ZM67.3389 23.779C67.678 23.779 67.9178 23.7335 68.0582 23.6425C68.2055 23.5445 68.2775 23.3765 68.2775 23.142C68.2775 22.9355 68.209 22.7815 68.0754 22.6765C67.9486 22.5715 67.7363 22.5225 67.4451 22.5225H66.3182L66.2223 23.7825H67.3423L67.3389 23.779ZM67.3047 26.4145C67.6506 26.4145 67.8938 26.362 68.0411 26.2605C68.1918 26.1555 68.2672 25.977 68.2672 25.7215C68.2672 25.4975 68.1987 25.3295 68.0582 25.221C67.9247 25.1055 67.7089 25.046 67.4109 25.046H66.1264L66.0202 26.4145H67.3047Z" fill="#B93A24"></path>
<path d="M78.6355 27.776C78.0189 27.776 77.4777 27.65 77.0153 27.4015C76.5563 27.146 76.2001 26.7855 75.9466 26.3235C75.7 25.8545 75.5801 25.3015 75.5801 24.661C75.5801 23.968 75.7068 23.3555 75.9637 22.827C76.2206 22.2915 76.5837 21.882 77.0564 21.595C77.5291 21.3045 78.0771 21.1575 78.7005 21.1575C79.324 21.1575 79.8583 21.287 80.3207 21.5425C80.7831 21.791 81.1359 22.1515 81.3791 22.6205C81.6292 23.0895 81.7559 23.639 81.7559 24.2725C81.7559 24.9655 81.6258 25.578 81.362 26.1065C81.1051 26.635 80.742 27.048 80.2693 27.3385C79.7966 27.629 79.252 27.776 78.632 27.776H78.6355ZM78.6183 26.4775C79.091 26.4775 79.4644 26.2815 79.7384 25.893C80.0124 25.5045 80.1495 24.962 80.1495 24.269C80.1495 23.6915 80.0227 23.2435 79.7727 22.9285C79.5226 22.6135 79.1732 22.4525 78.7245 22.4525C78.245 22.4525 77.8716 22.6485 77.5942 23.044C77.3201 23.4325 77.1831 23.9715 77.1831 24.6575C77.1831 25.242 77.3064 25.6935 77.5496 26.0085C77.7997 26.32 78.1559 26.474 78.6183 26.474V26.4775Z" fill="#B93A24"></path>
<path d="M88.9861 27.685L89.3731 22.61H87.5166L87.6228 21.2485H92.9423L92.8361 22.61H90.9899L90.6131 27.685H88.9861Z" fill="#B93A24"></path>
<path d="M98.6973 27.685L99.1802 21.252H100.79L100.307 27.685H98.6973Z" fill="#B93A24"></path>
<path d="M109.556 27.7655C108.939 27.7655 108.401 27.6395 107.946 27.391C107.497 27.1355 107.151 26.775 106.905 26.313C106.665 25.844 106.545 25.2945 106.545 24.661C106.545 23.961 106.682 23.3485 106.956 22.8165C107.23 22.288 107.614 21.8785 108.11 21.595C108.61 21.308 109.193 21.1645 109.85 21.1645C110.265 21.1645 110.652 21.224 111.015 21.3465C111.381 21.469 111.707 21.6405 111.988 21.868L111.402 23.065C111.152 22.869 110.905 22.729 110.666 22.6345C110.433 22.5435 110.186 22.498 109.929 22.498C109.371 22.498 108.939 22.6905 108.634 23.072C108.33 23.457 108.179 23.9855 108.179 24.661C108.179 25.2385 108.299 25.6795 108.538 25.984C108.778 26.2815 109.131 26.432 109.597 26.432C110.063 26.432 110.59 26.2465 111.19 25.8755L111.601 27.062C111.392 27.2755 111.097 27.447 110.717 27.573C110.344 27.7025 109.957 27.7655 109.552 27.7655H109.556Z" fill="#B93A24"></path>
<path d="M120.294 27.7655C119.821 27.7655 119.362 27.706 118.91 27.5835C118.461 27.454 118.074 27.2825 117.745 27.062L118.341 25.8755C118.965 26.278 119.639 26.4775 120.362 26.4775C120.694 26.4775 120.948 26.432 121.122 26.341C121.297 26.25 121.386 26.117 121.386 25.9385C121.386 25.7495 121.29 25.6025 121.099 25.501C120.907 25.3925 120.609 25.277 120.208 25.1545C119.776 25.0215 119.424 24.8885 119.15 24.7625C118.875 24.633 118.639 24.4475 118.44 24.1955C118.242 23.94 118.142 23.611 118.142 23.2085C118.142 22.806 118.252 22.442 118.464 22.1305C118.687 21.819 118.999 21.5845 119.4 21.42C119.804 21.2485 120.273 21.1645 120.807 21.1645C121.256 21.1645 121.684 21.2275 122.092 21.357C122.499 21.4865 122.828 21.6545 123.071 21.868L122.493 23.0545C122.243 22.8655 121.962 22.7185 121.653 22.617C121.349 22.5085 121.054 22.4525 120.759 22.4525C120.444 22.4525 120.194 22.5085 120.006 22.617C119.824 22.722 119.735 22.8655 119.735 23.0545C119.735 23.2435 119.828 23.3975 120.016 23.5025C120.208 23.6075 120.513 23.723 120.927 23.849C121.352 23.982 121.701 24.115 121.969 24.241C122.243 24.3635 122.479 24.5455 122.678 24.787C122.876 25.032 122.976 25.3505 122.976 25.746C122.976 26.39 122.743 26.8905 122.277 27.244C121.811 27.5905 121.146 27.7655 120.29 27.7655H120.294Z" fill="#B93A24"></path>
</svg>
